<svg xmlns="http://www.w3.org/2000/svg" xmlns:xlink="http://www.w3.org/1999/xlink" width="32" height="31" viewBox="0 0 32 31"><defs><path id="gi06a" d="M62.57 191.23l-2.82-2.07a.69.69 0 0 0-.98.15.7.7 0 0 0 .16.98l2.82 2.08c.54.39.86 1.04.86 1.73v15.39c0 1.16-.88 2.1-1.97 2.1H35.36c-1.09 0-1.97-.94-1.97-2.1V194.1c0-.7.32-1.34.86-1.74l2.85-2.09a.7.7 0 0 0 .15-.98.69.69 0 0 0-.97-.16l-2.85 2.1A3.57 3.57 0 0 0 32 194.1v15.39c0 1.93 1.5 3.51 3.36 3.51h25.28a3.44 3.44 0 0 0 3.36-3.51V194.1c0-1.14-.53-2.21-1.43-2.87z"/><path id="gi06b" d="M54.71 184.74l-1.94-1.38a7.36 7.36 0 0 0-8.52 0l-1.96 1.4a.68.68 0 0 0-.16.96.72.72 0 0 0 .98.15l1.97-1.4a5.93 5.93 0 0 1 6.86 0l1.94 1.38c.32.22.75.16.98-.15a.68.68 0 0 0-.15-.96z"/><path id="gi06c" d="M60.89 194.3a.7.7 0 0 0-.95-.19l-8.86 5.67a5.73 5.73 0 0 1-6.16 0l-8.86-5.67a.7.7 0 0 0-.95.18c-.2.3-.12.71.2.92l8.85 5.67a7.11 7.11 0 0 0 7.68 0l8.85-5.67c.32-.2.4-.61.2-.92z"/><path id="gi06d" d="M59.3 185H36.7a.7.7 0 0 0-.7.7v10.6a.7.7 0 0 0 1.41 0v-9.89H58.6v9.88a.7.7 0 0 0 1.41 0v-10.58a.7.7 0 0 0-.7-.71z"/><path id="gi06e" d="M48.6 191.8l-.15-.01c-2.03-.25-2.05-.69-2.05-.69 0-.18.74-.7 2.1-.7 1.31 0 2.08.5 2.1.7.05.38.4.65.79.6a.7.7 0 0 0 .6-.78c-.14-1.11-1.6-1.92-3.49-1.92-2 0-3.5.9-3.5 2.1 0 1.68 2.38 1.97 3.4 2.1l.16.01c2.02.25 2.04.69 2.04.69 0 .14-.67.7-2.1.7-1.31 0-2.08-.5-2.1-.7a.7.7 0 0 0-1.39.17c.14 1.12 1.6 1.93 3.49 1.93 2 0 3.5-.9 3.5-2.1 0-1.68-2.38-1.97-3.4-2.1z"/><path id="gi06f" d="M47.5 187c-.28 0-.5.32-.5.71v8.58c0 .39.22.71.5.71s.5-.32.5-.71v-8.58c0-.39-.22-.71-.5-.71z"/><path id="gi06g" d="M53.32 199H41.68c-.37 0-.68.22-.68.5s.3.5.68.5h11.64c.37 0 .68-.22.68-.5s-.3-.5-.68-.5z"/><path id="gi06h" d="M56.33 187h-2.66c-.37 0-.67.22-.67.5s.3.5.67.5h2.66c.37 0 .67-.22.67-.5s-.3-.5-.67-.5z"/><path id="gi06i" d="M42.33 196h-2.66c-.37 0-.67.22-.67.5s.3.5.67.5h2.66c.37 0 .67-.22.67-.5s-.3-.5-.67-.5z"/></defs><g><g opacity=".5" transform="translate(-32 -182)"><use fill="#fff" xlink:href="#gi06a"/></g><g opacity=".5" transform="translate(-32 -182)"><use fill="#fff" xlink:href="#gi06b"/></g><g opacity=".5" transform="translate(-32 -182)"><use fill="#fff" xlink:href="#gi06c"/></g><g opacity=".5" transform="translate(-32 -182)"><use fill="#fff" xlink:href="#gi06d"/></g><g opacity=".5" transform="translate(-32 -182)"><use fill="#fff" xlink:href="#gi06e"/></g><g opacity=".5" transform="translate(-32 -182)"><use fill="#fff" xlink:href="#gi06f"/></g><g opacity=".5" transform="translate(-32 -182)"><use fill="#fff" xlink:href="#gi06g"/></g><g opacity=".5" transform="translate(-32 -182)"><use fill="#fff" xlink:href="#gi06h"/></g><g opacity=".5" transform="translate(-32 -182)"><use fill="#fff" xlink:href="#gi06i"/></g></g></svg>