<svg xmlns="http://www.w3.org/2000/svg" xmlns:xlink="http://www.w3.org/1999/xlink" width="35" height="37" viewBox="0 0 35 37"><defs><path id="2cjma" d="M711 124a4 4 0 1 1 8.01.01A4 4 0 0 1 711 124zm1.6 0a2.4 2.4 0 1 0 4.8 0 2.4 2.4 0 0 0-4.8 0z"/><path id="2cjmb" d="M722 126a4 4 0 1 1 8.01.01A4 4 0 0 1 722 126zm1.6 0a2.4 2.4 0 1 0 4.8 0 2.4 2.4 0 0 0-4.8 0z"/><path id="2cjmc" d="M731.98 142.43l-1-8a3.92 3.92 0 0 0-3.9-3.43h-3.87c-.44 0-.88.08-1.3.23a.78.78 0 1 0 .52 1.47c.26-.1.52-.14.78-.14h3.87c1.19 0 2.2.89 2.34 2.06l1 8a.77.77 0 0 1-.18.62.77.77 0 0 1-.6.26h-.57a.78.78 0 0 0-.78.73l-.74 10.2h-4.81l-.17-2.4a.78.78 0 0 0-.84-.71.78.78 0 0 0-.73.83l.23 3.12c.03.41.37.73.78.73h6.28c.4 0 .75-.32.78-.72l.73-10.22a2.36 2.36 0 0 0 2.18-2.63z"/><path id="2cjmd" d="M721.82 148.94a.78.78 0 0 1-.6.28h-2.64l-1.26 7.14a.78.78 0 0 1-.77.64h-3.1a.78.78 0 0 1-.77-.64l-1.26-7.14h-2.64a.78.78 0 0 1-.77-.93l1.13-5.7a2.56 2.56 0 0 1-1.12-2.44l1.03-7.4a4.11 4.11 0 0 1 3.97-3.75h3.97c2.01 0 3.72 1.62 3.96 3.78l1.03 7.35c.11 1-.35 1.95-1.12 2.45l1.13 5.72a.78.78 0 0 1-.17.64zm-2.05-7.56c.43-.11.72-.56.66-1.05l-1.03-7.36c-.15-1.38-1.2-2.41-2.42-2.41h-3.97c-1.22 0-2.26 1.03-2.42 2.4l-1.03 7.39c-.06.47.23.92.66 1.03.4.1.64.5.56.9l-1.06 5.39h2.35c.38 0 .7.27.77.64l1.26 7.13h1.8l1.26-7.13a.78.78 0 0 1 .76-.64h2.35l-1.06-5.38c-.08-.4.17-.8.56-.9z"/><path id="2cjme" d="M707.27 151.31a.78.78 0 0 0-.84.73l-.17 2.4h-4.82l-.73-10.22a.79.79 0 0 0-.78-.72h-.58a.77.77 0 0 1-.59-.26.77.77 0 0 1-.19-.62l1.01-8a2.35 2.35 0 0 1 2.34-2.06h3.87c.18 0 .36.03.6.09a.8.8 0 0 0 .95-.56.78.78 0 0 0-.56-.95c-.36-.1-.68-.14-1-.14h-3.86a3.92 3.92 0 0 0-3.9 3.42l-1 8a2.34 2.34 0 0 0 2.18 2.64l.73 10.21c.03.41.37.73.78.73H707c.41 0 .75-.32.78-.73l.23-3.12a.78.78 0 0 0-.73-.84z"/><path id="2cjmf" d="M700 126a4 4 0 1 1 8.01.01A4 4 0 0 1 700 126zm1.6 0a2.4 2.4 0 1 0 4.8 0 2.4 2.4 0 0 0-4.8 0z"/></defs><g><g transform="translate(-697 -120)"><use fill="#fff" xlink:href="#2cjma"/></g><g transform="translate(-697 -120)"><use fill="#fff" xlink:href="#2cjmb"/></g><g transform="translate(-697 -120)"><use fill="#fff" xlink:href="#2cjmc"/></g><g transform="translate(-697 -120)"><use fill="#fff" xlink:href="#2cjmd"/></g><g transform="translate(-697 -120)"><use fill="#fff" xlink:href="#2cjme"/></g><g transform="translate(-697 -120)"><use fill="#fff" xlink:href="#2cjmf"/></g></g></svg>