<svg xmlns="http://www.w3.org/2000/svg" xmlns:xlink="http://www.w3.org/1999/xlink" width="20" height="20" viewBox="0 0 20 20"><defs><path id="ztyna" d="M1114.28 228h-14.67a.73.73 0 0 1-.72-.74v-3.68c0-.4.32-.73.72-.73.39 0 .71.33.71.73v2.95h13.24v-10.69l-.12.01h-5.13a.73.73 0 0 1-.71-.73v-5.65h-7.28v7.49c0 .4-.32.73-.71.73a.73.73 0 0 1-.72-.73v-8.22c0-.4.32-.74.72-.74h8.9c.19 0 .37.07.5.2l5.76 5.5c.14.14.23.34.23.55v13.01c0 .4-.33.74-.72.74zm-5.25-17.77v4.15h4.33z"/><path id="ztynb" d="M1095 219.96c0 .4.33.74.72.74h9.54l-2.33 2.1a.75.75 0 0 0-.06 1.05.73.73 0 0 0 1.02.06l3.76-3.41a.75.75 0 0 0 0-1.1l-3.76-3.41a.72.72 0 0 0-1.02.06c-.27.3-.24.77.06 1.04l2.36 2.13h-9.57c-.4 0-.72.34-.72.74z"/></defs><g><g transform="translate(-1095 -208)"><g><use fill="#fff" xlink:href="#ztyna"/></g><g><use fill="#fff" xlink:href="#ztynb"/></g></g></g></svg>