<svg xmlns="http://www.w3.org/2000/svg" xmlns:xlink="http://www.w3.org/1999/xlink" width="34" height="34" viewBox="0 0 34 34"><defs><path id="b52da" d="M35 276.5a3.5 3.5 0 1 1 7.01.01 3.5 3.5 0 0 1-7.01-.01zm1.4 0a2.1 2.1 0 1 0 4.2 0 2.1 2.1 0 0 0-4.2 0z"/><path id="b52db" d="M43.98 291.98c.08.65-.12 1.3-.54 1.77-.37.4-.85.64-1.37.67l-.74 9.96a.66.66 0 0 1-.66.62h-5.34a.67.67 0 0 1-.66-.62l-.74-9.96c-.52-.03-1-.27-1.37-.67a2.27 2.27 0 0 1-.55-1.77l.89-7.74c.2-1.85 1.67-3.24 3.4-3.24h3.4c1.73 0 3.2 1.4 3.4 3.24zm-1.32.15l-.88-7.74c-.14-1.17-1.03-2.06-2.08-2.06h-3.4c-1.05 0-1.94.89-2.08 2.06l-.88 7.74c-.03.27.05.54.22.73.08.08.24.23.49.23h.5c.35 0 .64.27.67.62l.73 9.96h4.1l.73-9.96a.67.67 0 0 1 .67-.62h.5c.25 0 .42-.15.5-.23.16-.2.24-.46.21-.73z"/><path id="b52dc" d="M63.33 273H42.67a.67.67 0 0 0 0 1.33h20v17.34H46a.67.67 0 0 0 0 1.33h17.33c.37 0 .67-.3.67-.67v-18.66c0-.37-.3-.67-.67-.67z"/><path id="b52dd" d="M46.2 288.69l2.83-4.63 2.03 2.08a.64.64 0 0 0 1-.1l2.17-3.33.74.76c.14.14.32.21.51.2a.65.65 0 0 0 .48-.27l3.9-5.33a.68.68 0 0 0-.12-.94.64.64 0 0 0-.91.14l-3.47 4.72-.77-.8a.65.65 0 0 0-1 .1l-2.17 3.33-2.05-2.1a.63.63 0 0 0-.53-.18.65.65 0 0 0-.48.3l-3.26 5.34c-.2.31-.1.72.2.92a.64.64 0 0 0 .9-.21z"/></defs><g><g opacity=".5" transform="translate(-31 -272)"><use fill="#fff" xlink:href="#b52da"/><use fill="#fff" fill-opacity="0" stroke="#fff" stroke-miterlimit="50" stroke-width=".3" xlink:href="#b52da"/></g><g opacity=".5" transform="translate(-31 -272)"><use fill="#fff" xlink:href="#b52db"/><use fill="#fff" fill-opacity="0" stroke="#fff" stroke-miterlimit="50" stroke-width=".3" xlink:href="#b52db"/></g><g opacity=".5" transform="translate(-31 -272)"><use fill="#fff" xlink:href="#b52dc"/><use fill="#fff" fill-opacity="0" stroke="#fff" stroke-miterlimit="50" stroke-width=".3" xlink:href="#b52dc"/></g><g opacity=".5" transform="translate(-31 -272)"><use fill="#fff" xlink:href="#b52dd"/><use fill="#fff" fill-opacity="0" stroke="#fff" stroke-miterlimit="50" stroke-width=".3" xlink:href="#b52dd"/></g></g></svg>