<svg xmlns="http://www.w3.org/2000/svg" xmlns:xlink="http://www.w3.org/1999/xlink" width="38" height="38" viewBox="0 0 38 38"><defs><path id="77q5a" d="M989 155.38c0 .34-.3.62-.65.62h-11.7a.63.63 0 0 1-.65-.62c0-.34.3-.61.65-.61h.65v-1.45c0-2.18 1.2-4.16 3.14-5.32a6.23 6.23 0 0 1-3.14-5.32v-1.45h-.65a.63.63 0 0 1-.65-.61c0-.34.3-.62.65-.62h11.7c.36 0 .65.28.65.62 0 .34-.3.61-.65.61h-.65v1.45c0 2.18-1.2 4.16-3.14 5.32a6.23 6.23 0 0 1 3.14 5.32v1.45h.65c.36 0 .65.27.65.61zm-7.02-8h1.04a5.14 5.14 0 0 0 3.38-4.7v-1.45h-7.8v1.45a5.14 5.14 0 0 0 3.38 4.7zm-3.38 7.39h7.8v-1.45a5.14 5.14 0 0 0-3.38-4.7h-1.04a5.14 5.14 0 0 0-3.38 4.7z"/><path id="77q5b" d="M971.16 139.83V151H958v-18h25v6.83zm-5.92-1.24h4.6v-4.35h-4.6zm-5.92 0h4.6v-4.35h-4.6zm0 5.58h4.6v-4.34h-4.6zm4.6 1.24h-4.6v4.35h4.6zm5.92 0h-4.6v4.35h4.6zm0-5.58h-4.6v4.34h4.6zm5.92-5.59h-4.6v4.35h4.6zm1.32 4.35h4.6v-4.35h-4.6z"/><path id="77q5c" d="M973.92 154.39c0 .34-.29.61-.65.61h-19.62c-.36 0-.65-.27-.65-.61v-31.32c0-.34.3-.61.65-.61h3.27v-1.85c0-.34.3-.61.66-.61h4.57c.37 0 .66.27.66.61v1.85h14.38v-1.85c0-.34.3-.61.66-.61h4.57c.36 0 .66.27.66.61v1.85h3.27c.36 0 .65.27.65.61v14.12c0 .34-.3.62-.65.62-.37 0-.66-.28-.66-.62v-7.37h-31.38v23.95h18.96c.36 0 .65.28.65.62zm4.58-29.48h3.27v-3.68h-3.27zm-20.27 0h3.27v-3.68h-3.27zm-3.92 3.69h31.38v-4.92h-2.61v1.85c0 .34-.3.61-.66.61h-4.57c-.37 0-.66-.27-.66-.61v-1.85h-14.38v1.85c0 .34-.3.61-.66.61h-4.57c-.36 0-.66-.27-.66-.61v-1.85h-2.61z"/></defs><g><g transform="translate(-952 -119)"><use fill="#fff" xlink:href="#77q5a"/><use fill="#fff" fill-opacity="0" stroke="#fff" stroke-miterlimit="50" stroke-width=".1" xlink:href="#77q5a"/></g><g transform="translate(-952 -119)"><use fill="#fff" xlink:href="#77q5b"/><use fill="#fff" fill-opacity="0" stroke="#fff" stroke-miterlimit="50" stroke-width=".1" xlink:href="#77q5b"/></g><g transform="translate(-952 -119)"><use fill="#fff" xlink:href="#77q5c"/><use fill="#fff" fill-opacity="0" stroke="#fff" stroke-miterlimit="50" stroke-width=".1" xlink:href="#77q5c"/></g></g></svg>