<svg xmlns="http://www.w3.org/2000/svg" xmlns:xlink="http://www.w3.org/1999/xlink" width="33" height="32" viewBox="0 0 33 32"><defs><path id="4avwa" d="M63 372.16a6.93 6.93 0 0 1-7 6.84 6.99 6.99 0 0 1-6.72-4.93l-4.74 4.62L31 365.43l3.24-3.16 13.2-12.87.42-.4h7.54l5.98 5.84v7.44l-3.4 3.32a6.87 6.87 0 0 1 5.02 6.56zm-14.7-22.1l-12.54 12.22 12.02 11.76 1.25-1.22v-.12l-.01-.1-.01-.12-.01-.32a6.93 6.93 0 0 1 7.34-6.84l.1.01.11.01.15.01 3.6-3.5v-6.58l-5.35-5.22zm-3.75 27.14l2.47-2.4L35 363.01l-2.48 2.41zm17.37-5.04a5.84 5.84 0 0 0-5.09-5.73l-.3-.03h-.08l-.45-.03a5.87 5.87 0 0 0-5.93 5.79c0 .15.02.29.03.43v.12l.04.24a5.89 5.89 0 0 0 5.86 5c3.27 0 5.92-2.6 5.92-5.8z"/><path id="4avwb" d="M58.5 372H56v-2.5a.5.5 0 1 0-1 0v2.5h-2.5a.5.5 0 1 0 0 1H55v2.5a.5.5 0 1 0 1 0V373h2.5a.5.5 0 1 0 0-1z"/><path id="4avwc" d="M52 356a2 2 0 1 1 4 0 2 2 0 0 1-4 0zm1.02 0a.98.98 0 1 0 1.97 0 .98.98 0 0 0-1.97 0z"/></defs><g><g transform="translate(-31 -348)"><use fill="#9b9e9e" xlink:href="#4avwa"/><use fill="#fff" fill-opacity="0" stroke="#9b9e9e" stroke-miterlimit="50" stroke-width=".5" xlink:href="#4avwa"/></g><g transform="translate(-31 -348)"><use fill="#9b9e9e" xlink:href="#4avwb"/><use fill="#fff" fill-opacity="0" stroke="#9b9e9e" stroke-miterlimit="50" stroke-width=".5" xlink:href="#4avwb"/></g><g transform="translate(-31 -348)"><use fill="#9b9e9e" xlink:href="#4avwc"/><use fill="#fff" fill-opacity="0" stroke="#9b9e9e" stroke-miterlimit="50" stroke-width=".5" xlink:href="#4avwc"/></g></g></svg>