<svg xmlns="http://www.w3.org/2000/svg" xmlns:xlink="http://www.w3.org/1999/xlink" width="23" height="22" viewBox="0 0 23 22"><defs><path id="yn5za" d="M957.82 214.55l1.78.9a.89.89 0 1 0 .8-1.6l-1.78-.89a.89.89 0 1 0-.8 1.6z"/><path id="yn5zb" d="M957.82 218.1l1.78.9a.89.89 0 1 0 .8-1.6l-1.78-.89a.89.89 0 1 0-.8 1.6z"/><path id="yn5zc" d="M957.82 221.66l1.78.9a.89.89 0 1 0 .8-1.6l-1.78-.89a.89.89 0 1 0-.8 1.6z"/><path id="yn5zd" d="M965.73 215.44l1.77-.89a.89.89 0 1 0-.8-1.59l-1.77.9a.89.89 0 0 0 .8 1.58z"/><path id="yn5ze" d="M965.73 219l1.77-.9a.89.89 0 1 0-.8-1.59l-1.77.9a.89.89 0 0 0 .8 1.58z"/><path id="yn5zf" d="M965.73 222.55l1.77-.89a.89.89 0 1 0-.8-1.59l-1.77.9a.89.89 0 0 0 .8 1.58z"/><path id="yn5zg" d="M973.33 211.09v16c0 .49-.4.88-.89.88h-9.74a.86.86 0 0 1-.06 0h-9.75c-.5 0-.89-.4-.89-.88v-16c0-.5.4-.9.9-.9l1.77.03v-1.31a.89.89 0 0 1 1.2-.83l6.8 2.55 6.8-2.55a.89.89 0 0 1 1.2.83v1.29h1.77c.5 0 .9.4.9.89zm-4.44-.9l-5.33 2v13.61l5.33-2zm-12.45 13.61l5.34 2v-13.6l-5.34-2zm-2.66 2.4h3.98l-2.51-.95-.04-.01-.03-.02h-.03c0-.02-.02-.02-.03-.03l-.03-.01-.03-.02-.03-.02-.02-.02-.03-.02-.02-.02-.03-.03-.02-.02-.03-.03-.02-.02-.02-.03-.01-.02-.02-.03-.02-.03-.02-.03-.01-.03-.02-.03v-.03l-.02-.03-.01-.03-.01-.04-.01-.03v-.04l-.01-.02v-.03l-.01-.11v-12.43h-.9zm17.78 0v-14.23h-.9V224.58l-.02.04v.02l-.01.05-.01.02-.02.04v.03l-.02.03-.02.03s0 .02-.02.03v.02l-.03.04-.02.01-.02.04-.02.02-.03.03-.02.02-.02.03-.03.01-.02.03-.03.02-.03.02-.03.02-.03.01-.03.02-.03.01-.03.02-.03.01-2.52.95z"/></defs><g><g transform="translate(-951 -207)"><g><use fill="#b4b4b4" xlink:href="#yn5za"/><use fill="#fff" fill-opacity="0" stroke="#f6f6f6" stroke-miterlimit="50" stroke-width=".6" xlink:href="#yn5za"/></g><g><use fill="#b4b4b4" xlink:href="#yn5zb"/><use fill="#fff" fill-opacity="0" stroke="#f6f6f6" stroke-miterlimit="50" stroke-width=".6" xlink:href="#yn5zb"/></g><g><use fill="#b4b4b4" xlink:href="#yn5zc"/><use fill="#fff" fill-opacity="0" stroke="#f6f6f6" stroke-miterlimit="50" stroke-width=".6" xlink:href="#yn5zc"/></g><g><use fill="#b4b4b4" xlink:href="#yn5zd"/><use fill="#fff" fill-opacity="0" stroke="#f6f6f6" stroke-miterlimit="50" stroke-width=".6" xlink:href="#yn5zd"/></g><g><use fill="#b4b4b4" xlink:href="#yn5ze"/><use fill="#fff" fill-opacity="0" stroke="#f6f6f6" stroke-miterlimit="50" stroke-width=".6" xlink:href="#yn5ze"/></g><g><use fill="#b4b4b4" xlink:href="#yn5zf"/><use fill="#fff" fill-opacity="0" stroke="#f6f6f6" stroke-miterlimit="50" stroke-width=".6" xlink:href="#yn5zf"/></g><g><use fill="#b4b4b4" xlink:href="#yn5zg"/><use fill="#fff" fill-opacity="0" stroke="#f6f6f6" stroke-miterlimit="50" stroke-width=".6" xlink:href="#yn5zg"/></g></g></g></svg>