<svg xmlns="http://www.w3.org/2000/svg" xmlns:xlink="http://www.w3.org/1999/xlink" width="19" height="22" viewBox="0 0 19 22"><defs><path id="75tja" d="M970.86 216.33v-4.17c0-.46.37-.83.83-.83h5.83c.46 0 .83.37.83.83v4.17c0 .45-.37.83-.83.83h-5.83a.83.83 0 0 1-.83-.83zm1.67-3.33v2.5h4.16V213z"/><path id="75tjb" d="M982.27 226.56a.83.83 0 0 1-.59 1.42h-12.49a2.5 2.5 0 0 1-2.5-2.5v-2.64a2.5 2.5 0 0 1 0-4.7v-1.12a2.5 2.5 0 0 1 0-4.71v-2.21c0-1.16.94-2.1 2.1-2.1h12.89c.46 0 .83.37.83.83v14.95a.8.8 0 0 1-.19.57.88.88 0 0 1-.05.06c-.79.78-.79 1.36 0 2.15zm-15.57-6.07c0 .46.37.83.83.83.46 0 .83.37.83.83v.98l.07-.02.02-.01.11-.03.03-.01.09-.02h.04a2.46 2.46 0 0 1 .19-.04h.12l.04-.01h11.78v-13.32h-12.06c-.24 0-.43.19-.43.43v2.2a2.5 2.5 0 0 1 1.67 2.36.83.83 0 1 1-1.67 0 .83.83 0 1 0-.83.83c.46 0 .83.38.83.84v1.8a2.5 2.5 0 0 1 1.67 2.36.83.83 0 1 1-1.67 0 .83.83 0 1 0-1.66 0zm13.46 4.16h-10.97a.83.83 0 1 0 0 1.67h10.97a2.52 2.52 0 0 1 0-1.67z"/></defs><g><g transform="translate(-964 -207)"><use fill="#b4b4b4" xlink:href="#75tja"/><use fill="#fff" fill-opacity="0" stroke="#f6f6f6" stroke-miterlimit="50" stroke-width=".6" xlink:href="#75tja"/></g><g transform="translate(-964 -207)"><use fill="#b4b4b4" xlink:href="#75tjb"/><use fill="#fff" fill-opacity="0" stroke="#f6f6f6" stroke-miterlimit="50" stroke-width=".6" xlink:href="#75tjb"/></g></g></svg>