<svg xmlns="http://www.w3.org/2000/svg" xmlns:xlink="http://www.w3.org/1999/xlink" width="24" height="24" viewBox="0 0 24 24"><defs><path id="z421a" d="M360 122.94v2.12c0 .72-.52 1.34-1.24 1.46l-1.68.28c-.17.56-.4 1.1-.68 1.63l1 1.4c.41.59.34 1.4-.17 1.9l-1.5 1.5a1.47 1.47 0 0 1-1.9.16l-1.4-.99c-.51.28-1.06.5-1.62.68l-.3 1.68a1.48 1.48 0 0 1-1.45 1.24h-2.12c-.73 0-1.34-.52-1.46-1.24l-.29-1.68a9.48 9.48 0 0 1-1.58-.65l-1.4 1c-.26.18-.55.27-.87.27-.4 0-.76-.15-1.04-.43l-1.5-1.5a1.48 1.48 0 0 1-.16-1.9l.99-1.38a9.28 9.28 0 0 1-.69-1.63l-1.7-.3a1.48 1.48 0 0 1-1.24-1.45v-2.12c0-.72.52-1.34 1.24-1.46l1.66-.28c.17-.57.4-1.11.67-1.64l-1-1.4c-.42-.6-.35-1.4.16-1.92l1.5-1.5a1.47 1.47 0 0 1 1.91-.16l1.38 1a9.28 9.28 0 0 1 1.62-.69l.3-1.7c.12-.72.73-1.24 1.46-1.24H349c.73 0 1.34.52 1.46 1.24l.28 1.66c.6.18 1.16.41 1.7.7l1.4-1a1.47 1.47 0 0 1 1.9.16l1.5 1.5c.5.51.57 1.32.15 1.91l-.99 1.39c.28.52.5 1.07.68 1.63l1.68.3c.72.11 1.24.73 1.23 1.45zm-1.34 2.12v-2.12a.13.13 0 0 0-.1-.13l-2.11-.35a.67.67 0 0 1-.55-.5 8.03 8.03 0 0 0-.87-2.1.68.68 0 0 1 .03-.74l1.24-1.74a.14.14 0 0 0-.02-.17l-1.49-1.49a.13.13 0 0 0-.1-.04.15.15 0 0 0-.07.03l-1.73 1.24a.68.68 0 0 1-.74.03c-.67-.4-1.39-.7-2.15-.88a.68.68 0 0 1-.5-.55l-.35-2.1a.13.13 0 0 0-.13-.1h-2.11a.13.13 0 0 0-.13.1l-.36 2.13a.69.69 0 0 1-.5.54c-.74.2-1.44.5-2.1.88a.69.69 0 0 1-.74-.03l-1.73-1.23a.12.12 0 0 0-.07-.02c-.03 0-.06 0-.1.04l-1.49 1.49a.14.14 0 0 0-.02.17l1.25 1.75c.16.22.17.5.04.74a8.02 8.02 0 0 0-.86 2.1.68.68 0 0 1-.55.5l-2.09.35a.13.13 0 0 0-.1.13v2.12c0 .06.04.12.1.13l2.12.36c.27.04.48.24.55.5.19.73.49 1.44.88 2.09.13.23.12.52-.03.74l-1.23 1.73a.14.14 0 0 0 .01.17l1.5 1.5c.03.03.07.04.09.04.02 0 .05-.01.07-.03l1.76-1.25a.66.66 0 0 1 .39-.12.7.7 0 0 1 .34.09c.65.37 1.34.65 2.06.84.25.06.45.27.5.54l.34 2.1c.01.07.07.12.13.12h2.12c.06 0 .12-.05.13-.11l.35-2.11a.67.67 0 0 1 .5-.54c.73-.2 1.44-.48 2.1-.87a.68.68 0 0 1 .74.03l1.74 1.23c.02.02.04.03.07.03.03 0 .06 0 .1-.04l1.49-1.5a.14.14 0 0 0 .01-.16l-1.23-1.75a.68.68 0 0 1-.03-.74c.39-.65.68-1.36.87-2.1a.67.67 0 0 1 .54-.5l2.1-.34a.13.13 0 0 0 .12-.13z"/><path id="z421b" d="M352.94 123.77a5.18 5.18 0 1 1-10.36-.01 5.18 5.18 0 0 1 10.36 0zm-1.35 0a3.83 3.83 0 1 0-7.65 0 3.83 3.83 0 0 0 7.65 0z"/></defs><g><g transform="translate(-336 -112)"><g><use fill="#b4b4b4" xlink:href="#z421a"/></g><g><use fill="#b4b4b4" xlink:href="#z421b"/></g></g></g></svg>