<svg xmlns="http://www.w3.org/2000/svg" xmlns:xlink="http://www.w3.org/1999/xlink" width="36" height="36" viewBox="0 0 36 36"><defs><path id="ral0a" d="M447 138.27v-2.92c0-.4.34-.73.75-.73h2.33a4.17 4.17 0 0 1 3.29-3.14l2.51-.56.12-.4a4.7 4.7 0 0 1-1.21-2.18c-.5-.19-.85-.59-.92-1.08l-.17-1.26a1.3 1.3 0 0 1 .32-1.06c.11-.12.24-.22.38-.3-.05-.37-.1-.8-.1-1.05 0-1.97 1.17-2.88 3.77-2.95 1.13-.64 2.3-.64 2.82-.64 1.39 0 2.4.42 3.02 1.26.97 1.3.26 2.21-.08 2.54l-.15.13-.04.73c.13.08.25.17.34.29.26.29.38.67.33 1.04l-.18 1.27c-.07.47-.4.86-.83 1.06a4.66 4.66 0 0 1-1.28 2.26l.1.34 2.51.55a4.18 4.18 0 0 1 3.29 3.15h2.33c.41 0 .75.32.75.73v2.92c0 .4-.34.73-.75.73a.74.74 0 0 1-.75-.73v-2.2h-9.75v2.2c0 .4-.34.73-.75.73a.74.74 0 0 1-.75-.73v-2.2h-9.75v2.2c0 .4-.34.73-.75.73a.74.74 0 0 1-.75-.73zm4.62-3.66h14.75a2.78 2.78 0 0 0-2.07-1.71l-2.96-.65a.74.74 0 0 1-.55-.52l-.34-1.2a.72.72 0 0 1 .25-.76 3.17 3.17 0 0 0 1.19-2.11.74.74 0 0 1 .74-.67l.19-1.2c-.2 0-.39-.02-.53-.17a.59.59 0 0 1-.18-.48l.08-1.59c.01-.19.1-.37.25-.5l.36-.32c.1-.09.2-.2-.1-.62-.33-.43-.93-.65-1.82-.65-.44 0-1.37 0-2.2.52a.77.77 0 0 1-.4.12c-2.48.02-2.48.77-2.48 1.5 0 .25.1 1.04.16 1.48.03.21-.03.42-.17.58a.76.76 0 0 1-.57.25l.14 1.16c.39 0 .8.21.83.59.07.76.5 1.54 1.13 2.07.23.19.32.48.24.75l-.35 1.25a.74.74 0 0 1-.56.52l-2.95.65a2.78 2.78 0 0 0-2.08 1.71z"/><path id="ral0b" d="M477 155.25c0 .41-.34.75-.75.75h-34.5a.75.75 0 0 1-.75-.75 3.75 3.75 0 0 1 2.84-3.65l1.99-.49.08-.32a4.57 4.57 0 0 1-.99-1.98 1.3 1.3 0 0 1-.75-1.02l-.15-1.18a1.33 1.33 0 0 1 .58-1.27c-.04-.34-.08-.75-.08-.95 0-1.83 1-2.72 3.16-2.8a4.3 4.3 0 0 1 2.36-.59c1.5 0 2.24.66 2.6 1.22.81 1.23.22 2.08-.07 2.4l-.1.1-.04.64a1.33 1.33 0 0 1 .54 1.25l-.14 1.17c-.05.44-.32.81-.68 1.01a4.54 4.54 0 0 1-1.04 2.06l.06.26 1.99.5c.2.04.4.11.59.2.2-.09.4-.15.6-.2l1.98-.5.08-.32a4.57 4.57 0 0 1-.99-1.98 1.3 1.3 0 0 1-.75-1.02l-.15-1.18a1.33 1.33 0 0 1 .58-1.27c-.04-.34-.08-.75-.08-.95 0-1.83 1-2.72 3.16-2.8a4.3 4.3 0 0 1 2.36-.59c1.5 0 2.24.66 2.6 1.22.81 1.23.22 2.08-.07 2.4l-.1.1-.04.64a1.33 1.33 0 0 1 .54 1.25l-.14 1.17c-.05.44-.32.81-.68 1.01a4.54 4.54 0 0 1-1.04 2.06l.06.26 1.99.5c.2.04.4.11.59.2.2-.09.4-.15.6-.2l1.98-.5.08-.32a4.57 4.57 0 0 1-.99-1.98 1.3 1.3 0 0 1-.75-1.02l-.15-1.18a1.33 1.33 0 0 1 .58-1.27c-.04-.34-.08-.75-.08-.95 0-1.83 1-2.72 3.16-2.8a4.3 4.3 0 0 1 2.36-.59c1.5 0 2.24.66 2.6 1.22.81 1.23.22 2.08-.07 2.4l-.1.1-.04.64a1.33 1.33 0 0 1 .54 1.25l-.14 1.17c-.06.44-.32.81-.68 1.01a4.54 4.54 0 0 1-1.04 2.06l.06.26 1.99.5a3.75 3.75 0 0 1 2.84 3.64zm-1.63-.75a2.25 2.25 0 0 0-1.58-1.44l-2.42-.6a.75.75 0 0 1-.54-.55l-.28-1.1a.75.75 0 0 1 .23-.74c.53-.47.89-1.21.95-1.92.02-.35.29-.63.63-.68l.13-1.04c-.2 0-.32 0-.46-.15s-.13-.25-.12-.45l.07-1.47c0-.19.08-.36.22-.5l.29-.29c.06-.06.14-.15-.1-.53-.09-.13-.35-.54-1.35-.54-.34 0-1.07 0-1.69.45a.74.74 0 0 1-.43.14c-1.9.02-1.9.61-1.9 1.3 0 .35.14 1.38.14 1.38a.74.74 0 0 1-.63.83l.11.87c.35.07.67.34.7.68.06.69.4 1.41.9 1.88.2.19.29.47.22.73l-.29 1.15a.75.75 0 0 1-.54.55l-2.42.6a2.2 2.2 0 0 0-.59.25.75.75 0 0 1-.75 0c-.2-.12-.4-.2-.58-.25l-2.42-.6a.75.75 0 0 1-.54-.55l-.28-1.1a.75.75 0 0 1 .23-.74c.53-.47.89-1.21.95-1.92.02-.35.29-.63.63-.68l.13-1.04c-.2 0-.32 0-.46-.14-.14-.15-.13-.26-.12-.46l.07-1.47c0-.19.08-.36.22-.5l.29-.29c.06-.06.14-.15-.1-.52-.09-.14-.35-.54-1.35-.54-.34 0-1.07 0-1.69.44a.74.74 0 0 1-.43.14c-1.9.02-1.9.62-1.9 1.3 0 .35.14 1.38.14 1.38a.74.74 0 0 1-.63.84l.11.87c.35.06.67.33.7.67.06.7.4 1.41.9 1.89.2.18.29.46.22.73l-.29 1.15a.75.75 0 0 1-.54.54l-2.42.6a2.2 2.2 0 0 0-.59.25.75.75 0 0 1-.75 0c-.2-.12-.4-.2-.58-.24l-2.42-.6a.75.75 0 0 1-.54-.55l-.28-1.1a.75.75 0 0 1 .23-.74c.53-.48.89-1.22.95-1.92.02-.35.29-.63.63-.69l.13-1.04c-.2 0-.32 0-.46-.14-.14-.15-.13-.25-.12-.46l.07-1.47c0-.18.08-.36.22-.49l.29-.3c.06-.06.14-.15-.1-.52-.09-.13-.35-.54-1.35-.54-.34 0-1.07 0-1.69.45a.74.74 0 0 1-.43.14c-1.9.02-1.9.61-1.9 1.3 0 .35.14 1.37.14 1.37a.74.74 0 0 1-.63.84l.11.87c.35.06.67.34.7.68.06.69.4 1.4.9 1.88.2.19.29.47.22.73l-.29 1.15a.75.75 0 0 1-.54.55l-2.42.6c-.75.18-1.34.73-1.58 1.43z"/></defs><g><g transform="translate(-441 -120)"><use fill="#fff" xlink:href="#ral0a"/></g><g transform="translate(-441 -120)"><use fill="#fff" xlink:href="#ral0b"/></g></g></svg>